<?xml version="1.0" encoding="utf-8"?>
<!-- Generator: Adobe Illustrator 16.0.0, SVG Export Plug-In . SVG Version: 6.00 Build 0)  -->
<!DOCTYPE svg PUBLIC "-//W3C//DTD SVG 1.1//EN" "http://www.w3.org/Graphics/SVG/1.1/DTD/svg11.dtd">
<svg version="1.1" id="Layer_1" xmlns="http://www.w3.org/2000/svg" xmlns:xlink="http://www.w3.org/1999/xlink" x="0px" y="0px"
	 width="512px" height="512px" viewBox="0 0 512 512" enable-background="new 0 0 512 512" xml:space="preserve">
<g>
	<g>
		<path fill-rule="evenodd" clip-rule="evenodd" fill="#FEFEFE" d="M512.337,512.337c-168.999,0-338.001,0-507,0
			c0-162.773,0.287-325.547-0.454-488.321C4.811,8.094,8.089,4.805,24.019,4.883c156.543,0.75,313.094,0.75,469.637,0
			c15.927-0.078,19.208,3.206,19.135,19.132C512.05,186.79,512.337,349.563,512.337,512.337z"/>
		<path fill-rule="evenodd" clip-rule="evenodd" fill="#00A6FE" d="M453.632,293.521c0,55.13,0.096,110.265-0.042,165.395
			c-0.065,26.997-15.188,42.653-41.546,42.689c-102.26,0.141-204.522,0.146-306.782-0.005c-26.382-0.042-41.16-15.625-41.181-43.055
			c-0.091-110.26-0.086-220.525,0-330.79c0.019-23.573,19.813-45.384,43.12-47.583c7.051-0.662,14.431-1.23,21.295,0.078
			c27.562,5.243,46.051-4.878,58.046-30.207C208.989,2.643,308.784,2.418,331.28,50.372c11.87,25.298,30.724,31.917,58.268,30.426
			c48.954-2.647,64.084,14.275,64.084,63.333C453.632,193.924,453.632,243.723,453.632,293.521z"/>
		<path fill-rule="evenodd" clip-rule="evenodd" fill="#FEFEFE" d="M122.748,285.5c0-45.269-0.3-90.539,0.281-135.797
			c0.104-8.026-6.155-22.848,10.71-21.05c14.236,1.517,32.35-10.116,42.226,10.627c17.324,36.398,45.629,54.291,86.76,53.118
			c38.099-1.084,62.903-20.081,78.981-52.874c10.546-21.509,29.655-9.762,44.645-10.606c14.145-0.792,8.253,13.196,8.286,20.555
			c0.44,92.306-0.127,184.617,0.665,276.917c0.146,17.063-4.068,22.557-21.858,22.327c-76.318-0.99-152.663-0.948-228.984-0.026
			c-17.399,0.214-22.559-4.591-22.116-22.076C123.529,379.599,122.748,332.542,122.748,285.5z"/>
		<path fill-rule="evenodd" clip-rule="evenodd" fill="#FEFEFE" d="M199.566,99.081c0.292-0.177,4.198-2.402,7.951-4.868
			c6.979-4.576,10.105,2.314,11.841,5.592c17.754,33.543,32.711,15.578,48.43-1.834c8.876-9.834,18.794-18.726,28.058-28.216
			c6.598-6.765,13.298-8.334,20.55-1.267c8.394,8.183-0.039,12.544-4.482,17.074c-20.45,20.832-41.128,41.438-61.947,61.905
			c-2.944,2.897-6.932,6.061-10.723,6.478C232.896,154.638,198.375,110.953,199.566,99.081z"/>
		<path fill-rule="evenodd" clip-rule="evenodd" fill="#00A6FE" d="M286.381,405.59c-22.223,0.005-44.446-0.031-66.666,0.025
			c-9.98,0.026-21.087,0.787-21.806-13.003c-0.563-10.799-5.334-26.314,10.296-29.279c53.95-10.221,108.394-8.954,162.463-0.693
			c11.513,1.762,15.114,14.337,13.068,25.245c-2.154,11.482-10.162,17.861-22.691,17.757
			C336.158,405.438,311.27,405.584,286.381,405.59z"/>
		<path fill-rule="evenodd" clip-rule="evenodd" fill="#00A6FE" d="M290.368,224.168c22.179-0.021,44.436,1.147,66.505-0.385
			c17.668-1.23,24.654,9.209,26.554,22.556c1.973,13.848-8.245,24.683-21.063,25.043c-48.746,1.365-97.569,1.412-146.32,0.161
			c-14.551-0.375-18.481-12.82-18.921-26.945c-0.505-16.177,9.809-19.659,21.408-20.127
			C242.44,223.512,266.42,224.184,290.368,224.168z"/>
		<path fill-rule="evenodd" clip-rule="evenodd" fill="#00A6FE" d="M290.845,293.531c22.997,0.006,46.004,0.381,68.991-0.146
			c12.477-0.287,20.497,5.571,23.83,16.506c3.711,12.19-4.183,19.768-13.759,25.673c-0.734,0.453-1.615,0.781-2.471,0.923
			c-52.148,8.511-104.386,8.354-156.491,0.219c-17.975-2.81-13.618-18.143-13.115-29.822c0.591-13.639,11.257-13.436,21.368-13.389
			C243.082,293.609,266.962,293.531,290.845,293.531z"/>
		<path fill-rule="evenodd" clip-rule="evenodd" fill="#00A6FE" d="M186.975,251.53c-1.665,12.461-8.899,22.281-23.641,20.123
			c-12.649-1.855-26.001-5.904-24.707-24.214c1.155-16.318,9.41-23.813,25.34-23.229
			C180.322,224.814,187.058,234.274,186.975,251.53z"/>
		<path fill-rule="evenodd" clip-rule="evenodd" fill="#00A6FE" d="M186.881,315.702c2.429,18.528-11.213,24.354-23.894,24.97
			c-14.416,0.698-23.841-10.163-23.888-25.121c-0.042-14.624,8.665-21.086,23.57-22.337
			C180.473,291.718,185.294,301.479,186.881,315.702z"/>
		<path fill-rule="evenodd" clip-rule="evenodd" fill="#00A6FE" d="M163.459,357.323c10.012,5.139,23.969,5.754,23.487,23.104
			c-0.446,16.1-7.226,24.907-23.758,25.152c-14.729,0.225-23.982-6.702-24.123-21.66
			C138.919,368.742,148.592,360.737,163.459,357.323z"/>
	</g>
</g>
</svg>
