<?xml version="1.0" encoding="utf-8"?>
<!-- Generator: Adobe Illustrator 16.0.0, SVG Export Plug-In . SVG Version: 6.00 Build 0)  -->
<!DOCTYPE svg PUBLIC "-//W3C//DTD SVG 1.1//EN" "http://www.w3.org/Graphics/SVG/1.1/DTD/svg11.dtd">
<svg version="1.1" id="Layer_1" xmlns="http://www.w3.org/2000/svg" xmlns:xlink="http://www.w3.org/1999/xlink" x="0px" y="0px"
	 width="512px" height="512px" viewBox="0 0 512 512" enable-background="new 0 0 512 512" xml:space="preserve">
<g>
	<g>
		<path fill-rule="evenodd" clip-rule="evenodd" fill="#FEFEFE" d="M288.758,2.347c69.317,0,138.638,0.23,207.952-0.219
			c11.797-0.078,17.165,0.643,17.095,15.578c-0.736,159.074-0.729,318.153-0.011,477.221c0.067,14.778-5.081,15.755-17.024,15.655
			c-62.204-0.506-124.415-0.234-186.622-0.234c0.271-13.724,12.569-13.233,20.719-16.575
			c75.996-31.165,111.929-89.589,111.44-182.16c-0.355-67.239-45.596-129.428-113.824-156.489
			c-5.797-2.303-11.572-4.668-17.484-6.643c-11.974-3.995-14.598-10.063-8.047-21.958c32.004-58.111,31.508-60.597-11.763-114.441
			C288.839,9.157,287.536,6.102,288.758,2.347z"/>
		<path fill-rule="evenodd" clip-rule="evenodd" fill="#FEFEFE" d="M213.895,510.348c-63.985,0-127.974-0.262-191.954,0.234
			c-11.906,0.089-17.11-0.819-17.042-15.64C5.619,335.868,5.624,176.795,4.893,17.721C4.825,2.828,10.139,2.039,21.969,2.123
			c67.539,0.464,135.081,0.224,202.62,0.224c1.906,11.217-8.157,14.799-13.792,20.904c-29.578,32.053-31.16,67.265-1.493,99.856
			c13.008,14.293,12.037,21.536-5.371,28.246c-8.277,3.196-17.084,5.708-24.473,10.465c-18.969,12.199-33.353,11.128-47.074-9.039
			c-10.374-15.249-24.256-12.235-39.069,4.444c-12.201,13.744-5.548,23.593,7.047,29.671c22.139,10.685,17.646,22.993,7.082,39.949
			c-48.589,77.991-33.215,195.602,52.596,250.183c11.319,7.196,23.342,12.685,35.695,17.808
			C203.116,497.893,214.446,497.554,213.895,510.348z"/>
		<path fill-rule="evenodd" clip-rule="evenodd" fill="#00A6FE" d="M213.895,510.348c-31.102-14.533-61.988-27.803-88.229-52.336
			c-65.124-60.889-69.322-188.045-10.274-254.532c-0.927-0.977-1.682-2.376-2.833-2.893c-14.898-6.647-36.351-11.389-36.22-29.097
			c0.151-20.878,23.771-28.355,39.009-39.27c7.566-5.416,14.541,0.611,18.436,9.154c9.207,20.167,19.606,33.129,43.293,13.802
			c10.533-8.596,26.27-10.815,39.896-16.027c-51.714-39.186-48.45-94.582,7.616-136.802c21.39,0,42.779,0,64.168,0
			c53.962,40.633,58.408,84.816,12.285,136.332c70.098,17.16,122.261,58.936,141.24,126.739
			c26.914,96.148-4.016,195.937-118.932,239.002c-4.552,1.708-11.107-1.237-13.204,5.928
			C278.063,510.348,245.979,510.348,213.895,510.348z"/>
		<path fill-rule="evenodd" clip-rule="evenodd" fill="#FEFEFE" d="M328.472,439.589c6.29,23.39-8.455,30.387-23.622,29.849
			c-15.48-0.543-35.915,24.815-47.163-6.563c-0.227-0.627-3.616-0.836-5.083-0.204c-55.769,24.037-80.782-19.431-113.162-49.672
			c-14.583-13.619,1.815-14.93,6.295-21.494c-30.601-4.684-38.458-21.446-25.116-48.867c1.423-2.925,2.585-9.071,1.577-9.635
			c-32.337-18.146-2.175-40.017-3.094-59.829c-0.201-4.355,2.595-14.068,12.647-14.235c12.739-0.209,18.828-2.861,3.953-12.852
			c-4.434-2.981,0.402-7.645,3.271-10.977c25.184-29.259,55.289-50.69,93.234-60.461c11.724-3.018,14.23,1.964,13.904,11.891
			c-0.172,5.243,2.556,8.089,7.995,8.1c5.622,0.016,7.809-3.238,7.789-8.313c-0.084-21.071,16.611-13.698,24.998-12.063
			c40.146,7.833,72.361,29.729,98.362,61.056c3.459,4.167,7.984,8.308,0.757,12.58c-3.225,1.906-7.144,3.426-4.807,7.342
			c1.313,2.204,5.691,2.58,8.694,3.766c12.437,4.913,32.547,53.99,26.46,65.233c-3.841,7.102-11.067,3.551-16.825,4.271
			c-4.752,0.601-8.635,1.457-8.917,7.285c-0.256,5.305,1.943,8.428,7.441,8.59c20.429,0.605,13.703,11.933,9.917,23.368
			c-10.726,32.408-29.405,57.771-56.764,79.146C336.723,458.227,336.899,447.233,328.472,439.589z"/>
		<path fill-rule="evenodd" clip-rule="evenodd" fill="#FEFEFE" d="M210.688,91.331c-6.724-24.095,0.042-43.275,17.321-55.5
			c15.468-10.945,33.698-14.554,52.902-2.543c13.83,8.647,21.063,20.089,23.488,34.794c1.178,7.138,4.034,17.468-5.248,21.457
			c-7.136,3.065-6.055-7.655-11.193-10.318C272.768,71.346,218.605,78.474,210.688,91.331z"/>
		<path fill-rule="evenodd" clip-rule="evenodd" fill="#00A6FE" d="M189.86,215.229c27.75,39.651,64.583,69.605,85.143,112.509
			c3.309,6.903,5.747,14.658,0.687,19.786c-7.342,7.436-14.676-1.327-21.193-4.246c-5.261-2.354-10.428-7.524-13.053-12.747
			c-16.82-33.452-32.003-67.75-52.387-99.317C186.338,227.005,187.103,222.864,189.86,215.229z"/>
	</g>
</g>
</svg>
