<?xml version="1.0" encoding="utf-8"?>
<!-- Generator: Adobe Illustrator 16.0.0, SVG Export Plug-In . SVG Version: 6.00 Build 0)  -->
<!DOCTYPE svg PUBLIC "-//W3C//DTD SVG 1.1//EN" "http://www.w3.org/Graphics/SVG/1.1/DTD/svg11.dtd">
<svg version="1.1" id="Layer_1" xmlns="http://www.w3.org/2000/svg" xmlns:xlink="http://www.w3.org/1999/xlink" x="0px" y="0px"
	 width="512px" height="512px" viewBox="0 0 512 512" enable-background="new 0 0 512 512" xml:space="preserve">
<g>
	<g>
		<path fill-rule="evenodd" clip-rule="evenodd" fill="#FEFEFE" d="M5.39,5.39c164.379,0,328.758,0.289,493.134-0.458
			c16.084-0.074,19.4,3.237,19.324,19.321c-0.758,158.09-0.758,316.184,0,474.274c0.076,16.084-3.237,19.4-19.324,19.321
			c-158.087-0.758-316.181-0.758-474.268,0c-16.084,0.079-19.397-3.237-19.324-19.321C5.679,334.147,5.39,169.769,5.39,5.39z"/>
		<path fill-rule="evenodd" clip-rule="evenodd" fill="#00A6FE" d="M331.979,253.305c41.469,0,79.059-0.3,116.635,0.279
			c6.789,0.105,18.913-5.384,19.36,6.969c0.548,15.253-13.121,8.41-20.337,8.579c-33.205,0.778-66.442,0.263-99.668,0.452
			c-5.784,0.037-13.697-1.879-13.461,8.163c0.231,9.905,8.145,7.674,13.853,7.774c17.058,0.294,34.124-0.021,51.185,0.152
			c24.647,0.253,40.96,21.289,28.853,41.937c-15.005,25.584-22.59,53.006-29.421,80.885c-5.303,21.631-21.132,18.542-35.371,16.726
			c-15.195-1.941-26.358-9.368-24.342-28.311c1.247-11.726,6.002-21.947,9.552-32.763c4.248-12.947,1.393-18.842-14.402-19.61
			c-75.742-3.663-75.115-4.143-76.034,70.941c-0.334,27.385,4.371,54.953-4.631,82.321c-8.021,24.379-26.687,12.637-40.532,13.4
			c-14.547,0.805-20.129-14.647-18.295-24.595c10.187-55.195,1.445-110.637,4.458-165.832c0.342-6.269-0.839-12.826,0.587-18.789
			c2.684-11.227,13.887-27.205-2.876-30.8c-14.381-3.085-34.345-11.474-47.453,10.784c-13.237,22.479-37.366,21.384-49.334-1.764
			c-8.411-16.269-21.053-8.626-32.103-10.689c-5.624-1.053-13.579,2.095-13.958-7.795c-0.387-10.052,7.805-9.357,13.234-8.137
			c27.097,6.09,33.815-10.237,40.389-31.805c18.421-60.426,56.116-87.042,118.974-87.042c20.655,0,41.308,0,61.963,0
			c49.989,0,83.542-31.153,88.463-82.131c1.972-20.432,17.677-35.2,34.813-30.653c19.432,5.158,26.348,21.074,23.645,39.131
			c-8.081,53.969-35.142,95.484-85.5,119.09c-12.2,5.721-10.368,14.421-10.75,23.91C338.842,219.79,342.773,235.858,331.979,253.305
			z"/>
		<path fill-rule="evenodd" clip-rule="evenodd" fill="#00A6FE" d="M266.185,118.568c-36.493-0.068-56.279-19.553-55.995-55.137
			c0.271-33.505,20.332-52.705,55.003-52.653c37.187,0.058,57.679,18.763,58.168,53.095
			C323.826,96.269,300.447,118.637,266.185,118.568z"/>
		<path fill-rule="evenodd" clip-rule="evenodd" fill="#FEFEFE" d="M157.977,253.263c-1.414-11.574,4.921-18.416,9.044-25.705
			c7.876-13.916,25.292-35.279,31.805-30.642c13.937,9.931,4.46,32.2,5.405,49.315c0.418,7.605-6.621,6.926-11.834,6.99
			C180.955,253.353,169.511,253.263,157.977,253.263z"/>
	</g>
</g>
</svg>
