<?xml version="1.0" encoding="utf-8"?>
<!-- Generator: Adobe Illustrator 16.0.0, SVG Export Plug-In . SVG Version: 6.00 Build 0)  -->
<!DOCTYPE svg PUBLIC "-//W3C//DTD SVG 1.1//EN" "http://www.w3.org/Graphics/SVG/1.1/DTD/svg11.dtd">
<svg version="1.1" id="Layer_1" xmlns="http://www.w3.org/2000/svg" xmlns:xlink="http://www.w3.org/1999/xlink" x="0px" y="0px"
	 width="512px" height="512px" viewBox="0 0 512 512" enable-background="new 0 0 512 512" xml:space="preserve">
<g>
	<g>
		<path fill-rule="evenodd" clip-rule="evenodd" fill="#FEFEFE" d="M261.395,517.39c-80.737,0-161.474-0.237-242.205,0.284
			c-10.8,0.068-14.2-1.264-14.158-13.4c0.537-161.468,0.597-322.942-0.077-484.41C4.9,6.258,8.75,5.074,20.524,5.105
			c160.573,0.421,321.147,0.421,481.721,0c11.744-0.032,15.639,1.11,15.581,14.747c-0.679,161.469-0.613,322.942-0.079,484.411
			c0.04,12.115-3.323,13.483-14.147,13.41C422.868,517.147,342.132,517.39,261.395,517.39z"/>
		<path fill-rule="evenodd" clip-rule="evenodd" fill="#00A6FE" d="M47.727,258.694c22.7,0,37.631-0.589,52.497,0.147
			c19.981,0.984,39.734,2.695,41.082-30.158c17.658,24.058,20.626,49.206,31.174,70.906c3.066,6.305,5.566,12.889,8.7,19.157
			c2.219,4.438,2.811,10.438,10.442,9.964c7.918-0.49,6.163-6.653,8.337-11.127c10.366-21.357,10.079-46.32,22.742-67.079
			c10.666,16.274,65.407,27.2,78.944,15.774c2.393-2.021,5.224-6.7,4.382-8.669c-1.537-3.6-5.271-7.889-8.8-8.668
			c-6.874-1.521-14.429-1.963-21.369-0.821c-27.168,4.463-33.61-10.911-33.344-33.405c0.053-4.489,1.053-9.405-0.416-13.369
			c-2.547-6.884-2.292-17.168-12.666-17.673c-10.971-0.532-11.092,10.252-13.345,16.905c-7.008,20.705-11.963,42.121-19.434,62.632
			c-1.908,5.242,0.273,12.994-9.634,17.505c-10.284-25.437-20.132-50.932-31.053-75.953c-2.474-5.668-2.784-15.784-11.916-15.079
			c-8.166,0.632-11.621,10.269-12.113,15.942c-3.5,40.405-28.221,45.395-62.34,42.895c-36.568-2.684-55.481-20.205-58.8-62.058
			C5.553,120.363,52.04,71.953,118.484,69.605c79.418-2.806,104.652,16.031,143.908,75.642
			c32.468-71.242,93.347-83.442,160.934-74.232c40.798,5.563,73.558,31.174,85.858,70.632c13.949,44.742-2.858,85.616-34.587,119.1
			c-42.855,45.227-96.438,78.396-139.75,123.369c-23.484,24.384-48.427,47.684-64.353,77.621
			c-8.18,15.373-14.093,11.073-19.556,1.589c-44.213-76.773-115.958-125.731-181.353-181.152
			C63.613,277.105,58.797,270.679,47.727,258.694z"/>
		<path fill-rule="evenodd" clip-rule="evenodd" fill="#FEFEFE" d="M443.429,269.194c-15.992,0.695-22.563-3.231-23-14.584
			c-0.399-10.437,3.498-16.968,14.824-17.416c10.437-0.411,16.897,3.5,17.429,14.826
			C453.179,262.61,448.576,268.548,443.429,269.194z"/>
		<path fill-rule="evenodd" clip-rule="evenodd" fill="#FEFEFE" d="M355.755,252.731c-4.055,8.337-8.805,15.942-18.892,16.458
			c-9.4,0.479-16.424-7.384-17.548-13.979c-1.604-9.416,7.006-16.147,16.208-17.568C346.098,236.005,350.35,245.258,355.755,252.731
			z"/>
		<path fill-rule="evenodd" clip-rule="evenodd" fill="#FEFEFE" d="M404.269,253.826c-5.368,7.511-9.629,16.737-20.195,15.147
			c-9.226-1.384-17.81-8.126-16.258-17.531c1.095-6.621,8.132-14.448,17.508-14.021
			C395.437,237.884,400.155,245.537,404.269,253.826z"/>
	</g>
</g>
</svg>
