<?xml version="1.0" encoding="utf-8"?>
<!-- Generator: Adobe Illustrator 16.0.0, SVG Export Plug-In . SVG Version: 6.00 Build 0)  -->
<!DOCTYPE svg PUBLIC "-//W3C//DTD SVG 1.1//EN" "http://www.w3.org/Graphics/SVG/1.1/DTD/svg11.dtd">
<svg version="1.1" id="Layer_1" xmlns="http://www.w3.org/2000/svg" xmlns:xlink="http://www.w3.org/1999/xlink" x="0px" y="0px"
	 width="512px" height="512px" viewBox="0 0 512 512" enable-background="new 0 0 512 512" xml:space="preserve">
<g>
	<path fill="#FFFFFF" d="M480.852,255.925c0,31.573-0.635,63.238,0.182,94.812c1.361,55.888-33.751,99.076-78.479,118.311
		c-17.965,7.712-36.838,11.794-56.344,11.794c-61.061,0.091-122.211,0.908-183.272-0.273c-46-0.907-83.833-20.14-110.961-58.065
		c-14.244-19.961-21.048-42.642-21.048-67.23c0-65.052,0-130.013,0-195.065c0-53.077,25.857-90.185,71.766-114.318
		c19.961-10.433,41.646-14.878,64.236-14.969c59.246,0,118.582-0.362,177.829,0.182c45.999,0.363,84.377,17.964,112.684,54.981
		c15.786,20.686,23.408,44.457,23.408,70.587C480.852,189.693,480.852,222.81,480.852,255.925z M64.408,255.925
		c0,33.298,0,66.505,0,99.802c0,14.88,3.448,28.852,11.159,41.463c20.233,33.116,50.808,49.266,88.733,49.9
		c60.879,0.908,121.849,0.362,182.817,0.183c14.971,0,29.487-3.085,43.006-9.526c36.836-17.603,57.431-45.639,57.249-87.735
		c-0.361-64.417-0.09-128.834-0.09-193.251c0-18.237-5.172-34.931-15.968-49.629c-20.868-28.216-49.721-42.098-84.198-42.461
		c-60.787-0.726-121.576-0.272-182.363-0.182c-12.975,0-25.495,2.631-37.652,7.168c-33.389,12.43-64.417,43.912-62.965,90.274
		C65.225,193.322,64.408,224.624,64.408,255.925z"/>
	<path fill="#FFFFFF" d="M256.389,352.098c-58.519,0-105.698-46.635-105.789-104.701c-0.09-57.158,47.451-103.975,105.608-103.975
		c58.339-0.091,105.698,46.635,105.789,104.247C361.997,305.19,314.728,352.007,256.389,352.098z M256.389,318.528
		c39.83,0,72.129-31.847,72.039-71.041c-0.09-38.832-32.391-70.587-72.039-70.587c-39.828,0-72.31,31.664-72.31,70.768
		C184.169,286.863,216.56,318.618,256.389,318.528z"/>
	<path fill="#FFFFFF" d="M374.245,111.667c12.249,0,22.229,10.434,22.229,23.226c-0.091,12.793-10.163,23.136-22.41,23.045
		c-12.067-0.091-21.957-10.434-21.957-22.954C352.017,122.191,361.997,111.667,374.245,111.667z"/>
</g>
</svg>
