<?xml version="1.0" encoding="utf-8"?>
<!-- Generator: Adobe Illustrator 16.0.0, SVG Export Plug-In . SVG Version: 6.00 Build 0)  -->
<!DOCTYPE svg PUBLIC "-//W3C//DTD SVG 1.1//EN" "http://www.w3.org/Graphics/SVG/1.1/DTD/svg11.dtd">
<svg version="1.1" id="Layer_1" xmlns="http://www.w3.org/2000/svg" xmlns:xlink="http://www.w3.org/1999/xlink" x="0px" y="0px"
	 width="24px" height="24px" viewBox="0 0 24 24" enable-background="new 0 0 24 24" xml:space="preserve">
<g>
	<path fill="#FFFFFF" d="M21.217,5.258c1.074-0.66,1.786-1.561,2.134-2.706c-1.045,0.555-2.085,0.936-3.125,1.145
		c-0.936-1.005-2.12-1.516-3.537-1.516c-1.387,0-2.56,0.486-3.517,1.433c-0.951,0.955-1.431,2.112-1.431,3.464
		c0,0.411,0.052,0.778,0.155,1.089C7.807,8.03,4.419,6.332,1.751,3.067C1.299,3.865,1.073,4.68,1.073,5.521
		c0,1.73,0.729,3.101,2.188,4.108c-0.83-0.07-1.563-0.281-2.188-0.625c0,1.235,0.363,2.267,1.091,3.175
		c0.729,0.899,1.668,1.473,2.813,1.716c-0.415,0.107-0.853,0.158-1.302,0.158c-0.415,0-0.708-0.035-0.883-0.109
		c0.306,1.006,0.883,1.822,1.717,2.446c0.831,0.628,1.787,0.96,2.862,0.989c-1.772,1.391-3.797,2.077-6.088,2.077
		c-0.561,0-0.958-0.007-1.2-0.051C2.34,20.871,4.853,21.6,7.631,21.6c2.845,0,5.359-0.721,7.546-2.163
		c2.187-1.434,3.802-3.202,4.84-5.284c1.041-2.081,1.559-4.245,1.559-6.506V7.023c1.009-0.758,1.823-1.612,2.447-2.554
		C23.117,4.859,22.184,5.124,21.217,5.258z"/>
</g>
</svg>
